<?xml version="1.0" encoding="iso-8859-1"?>
<!-- Uploaded to: SVG Repo, www.svgrepo.com, Generator: SVG Repo Mixer Tools -->
<!DOCTYPE svg PUBLIC "-//W3C//DTD SVG 1.1//EN" "http://www.w3.org/Graphics/SVG/1.1/DTD/svg11.dtd">
<svg fill="#ffffff" height="800px" width="800px" version="1.1" id="Capa_1" xmlns="http://www.w3.org/2000/svg" xmlns:xlink="http://www.w3.org/1999/xlink" 
	 viewBox="0 0 51.686 51.686" xml:space="preserve">
<g>
	<path d="M9.772,22.054c-0.49-0.257-1.095-0.067-1.351,0.421c-1.968,3.751-2.495,7.926-1.485,11.756
		c0.118,0.449,0.523,0.746,0.966,0.746c0.085,0,0.171-0.011,0.256-0.034c0.534-0.141,0.853-0.688,0.712-1.222
		c-0.882-3.346-0.412-7.01,1.323-10.317C10.45,22.915,10.261,22.311,9.772,22.054z"/>
	<path d="M14.794,15.481c-1.016,0.667-1.972,1.434-2.84,2.278c-0.396,0.385-0.406,1.018-0.021,1.414
		c0.196,0.202,0.457,0.303,0.718,0.303c0.251,0,0.503-0.094,0.696-0.283c0.779-0.756,1.636-1.443,2.545-2.042
		c0.462-0.303,0.59-0.923,0.287-1.385C15.875,15.306,15.255,15.179,14.794,15.481z"/>
	<path d="M29.993,7.349c1.397-0.982,3.311-1.132,3.334-1.134c0.493-0.033,0.889-0.421,0.93-0.913
		c0.042-0.492-0.281-0.941-0.762-1.057c-2.244-0.541-4.178-0.592-5.769-0.155c-0.537-2.568-1.238-3.584-1.326-3.705
		c-0.377-0.513-1.236-0.513-1.613,0c-0.088,0.121-0.789,1.137-1.326,3.705c-1.593-0.437-3.525-0.386-5.769,0.155
		c-0.48,0.116-0.804,0.565-0.762,1.057s0.437,0.88,0.93,0.913c0.026,0.002,2.023,0.169,3.425,1.202
		C9.794,9.38,1.343,18.542,1.343,29.381c0,11.472,9.417,21.028,21.981,22.233l4.076,0.072c12.864-0.737,22.942-10.535,22.942-22.305
		C50.343,18.333,41.722,9.152,29.993,7.349z M27.362,49.688l-3.923-0.069C11.983,48.518,3.343,39.817,3.343,29.381
		c0-10.376,8.586-19.07,19.972-20.223c0.327-0.033,0.616-0.225,0.775-0.512c0.158-0.288,0.166-0.634,0.02-0.928
		c-0.363-0.73-0.876-1.31-1.45-1.768c0.408,0.091,0.783,0.221,1.124,0.391c0.286,0.141,0.622,0.139,0.905-0.006
		c0.283-0.146,0.479-0.419,0.529-0.734c0.114-0.729,0.244-1.345,0.375-1.858c0.131,0.513,0.261,1.128,0.375,1.858
		c0.05,0.315,0.246,0.587,0.529,0.734s0.62,0.148,0.905,0.006c0.342-0.17,0.719-0.301,1.129-0.392
		c-0.562,0.447-1.063,1.009-1.425,1.714c-0.152,0.297-0.146,0.651,0.016,0.942c0.162,0.292,0.459,0.484,0.792,0.511
		c11.646,0.962,20.429,9.674,20.429,20.265C48.343,40.093,39.094,49.013,27.362,49.688z"/>
</g>
</svg>